<!-- Generated by IcoMoon.io -->
<svg version="1.1" xmlns="http://www.w3.org/2000/svg" width="32" height="32" viewBox="0 0 32 32">
<title>fb</title>
<path d="M21 28v-9h2.679l0.467-4h-3.146v-2.229c0-1.049-0.066-1.764 1.439-1.764l1.561-0.001v-3.239c-0.5-0.044-1.244-0.143-2.568-0.143-2.765 0-4.432 1.688-4.432 4.788v2.587h-3.5v4h3.5v9h4z"></path>
<path d="M25 28.5h-18c-1.929 0-3.5-1.57-3.5-3.5v-18c0-1.929 1.571-3.5 3.5-3.5h18c1.93 0 3.5 1.571 3.5 3.5v18c0 1.93-1.57 3.5-3.5 3.5zM7 4.5c-1.378 0-2.5 1.122-2.5 2.5v18c0 1.378 1.122 2.5 2.5 2.5h18c1.378 0 2.5-1.122 2.5-2.5v-18c0-1.378-1.122-2.5-2.5-2.5h-18z"></path>
</svg>
