<!-- Generated by IcoMoon.io -->
<svg version="1.1" xmlns="http://www.w3.org/2000/svg" width="32" height="32" viewBox="0 0 32 32">
<title>in</title>
<path d="M11 24v-11h-3v11h3z"></path>
<path d="M9.679 11.5c1.256 0 2.038-0.737 2.038-1.777-0.024-1.063-0.782-1.825-2.014-1.825s-2.038 0.738-2.038 1.8c0 1.040 0.781 1.801 1.99 1.801h0.024z"></path>
<path d="M13.473 24h3.527v-6.044c0-0.324 0.061-0.648 0.157-0.879 0.26-0.648 0.939-1.317 1.933-1.317 1.303 0 1.91 0.994 1.91 2.45v5.791h3v-6.206c0-3.329-1.543-4.749-3.913-4.749-1.943 0-2.562 0.955-3.036 1.955h-0.052v-2h-3.527c0.047 1-0.088 11-0.088 11h0.088z"></path>
<path d="M25 28.5h-18c-1.929 0-3.5-1.57-3.5-3.5v-18c0-1.929 1.571-3.5 3.5-3.5h18c1.93 0 3.5 1.571 3.5 3.5v18c0 1.93-1.57 3.5-3.5 3.5zM7 4.5c-1.378 0-2.5 1.122-2.5 2.5v18c0 1.378 1.122 2.5 2.5 2.5h18c1.378 0 2.5-1.122 2.5-2.5v-18c0-1.378-1.122-2.5-2.5-2.5h-18z"></path>
</svg>
