<!-- Generated by IcoMoon.io -->
<svg version="1.1" xmlns="http://www.w3.org/2000/svg" width="17" height="32" viewBox="0 0 17 32">
<title>left</title>
<path d="M16.917 28.958c0.314 0.323 0.508 0.764 0.508 1.25 0 0.503-0.207 0.958-0.541 1.284l-0 0c-0.322 0.314-0.763 0.507-1.249 0.507-0.504 0-0.959-0.208-1.285-0.543l-0-0-13.836-14.266 1.284-1.25-1.289 1.25c-0.314-0.323-0.507-0.765-0.507-1.251 0-0.506 0.209-0.963 0.546-1.29l0-0c0.021-0.021 0.042-0.039 0.063-0.057l13.74-14.047c0.69-0.711 1.823-0.727 2.534-0.036s0.724 1.826 0.034 2.534l-12.62 12.904 12.62 13.013z"></path>
</svg>
