<!-- Generated by IcoMoon.io -->
<svg version="1.1" xmlns="http://www.w3.org/2000/svg" width="32" height="32" viewBox="0 0 32 32">
<title>pt</title>
<path d="M11.445 27.64c-0.11-0.99-0.21-2.505 0.045-3.585 0.225-0.975 1.465-6.215 1.465-6.215s-0.375-0.75-0.375-1.855c0-1.74 1.005-3.035 2.26-3.035 1.070 0 1.585 0.8 1.585 1.76 0 1.075-0.685 2.675-1.035 4.16-0.295 1.245 0.62 2.26 1.85 2.26 2.22 0 3.93-2.34 3.93-5.725 0-2.99-2.15-5.085-5.225-5.085-3.555 0-5.64 2.67-5.64 5.425 0 1.075 0.41 2.225 0.93 2.855 0.1 0.12 0.115 0.23 0.085 0.355-0.095 0.395-0.305 1.245-0.345 1.42-0.055 0.23-0.185 0.275-0.42 0.165-1.56-0.725-2.54-3.005-2.54-4.84 0-3.945 2.865-7.565 8.26-7.565 4.34 0 7.71 3.090 7.71 7.22 0 4.305-2.72 7.775-6.49 7.775-1.265 0-2.455-0.66-2.865-1.435 0 0-0.625 2.385-0.775 2.97-0.285 1.085-1.045 2.445-1.555 3.28z"></path>
<path d="M16 29c-7.168 0-13-5.831-13-13s5.832-13 13-13 13 5.832 13 13-5.832 13-13 13zM16 4c-6.617 0-12 5.383-12 12s5.383 12 12 12 12-5.383 12-12-5.383-12-12-12z"></path>
</svg>
