<!-- Generated by IcoMoon.io -->
<svg version="1.1" xmlns="http://www.w3.org/2000/svg" width="17" height="32" viewBox="0 0 17 32">
<title>right</title>
<path d="M0.508 28.958c-0.314 0.322-0.507 0.763-0.507 1.249 0 0.504 0.208 0.959 0.543 1.285l0 0c0.322 0.314 0.763 0.507 1.249 0.507 0.504 0 0.959-0.208 1.285-0.543l0-0 13.833-14.268-1.284-1.247 1.289 1.25c0.69-0.714 0.674-1.852-0.039-2.542-0.021-0.021-0.042-0.039-0.063-0.057l-13.74-14.047c-0.69-0.711-1.823-0.727-2.534-0.036-0.708 0.69-0.724 1.823-0.034 2.534l12.62 12.904-12.62 13.013z"></path>
</svg>
