<svg aria-hidden="true" style="position: absolute; width: 0; height: 0; overflow: hidden;" version="1.1" xmlns="http://www.w3.org/2000/svg" xmlns:xlink="http://www.w3.org/1999/xlink">
<defs>
<symbol id="icon-tw" viewBox="0 0 32 32">
<path d="M28.797 8.043c-0.143-0.17-0.381-0.225-0.585-0.136-0.307 0.136-0.622 0.256-0.945 0.36 0.412-0.518 0.731-1.108 0.937-1.745 0.064-0.198-0.001-0.413-0.163-0.543s-0.387-0.147-0.566-0.042c-0.889 0.521-1.836 0.894-2.82 1.112-1.033-0.987-2.43-1.548-3.878-1.548-3.084 0-5.595 2.489-5.595 5.549 0 0.202 0.011 0.405 0.034 0.607-3.705-0.352-7.145-2.171-9.514-5.051-0.104-0.126-0.259-0.192-0.425-0.181-0.162 0.013-0.309 0.104-0.392 0.244-0.497 0.84-0.76 1.806-0.76 2.796 0 1.223 0.404 2.39 1.123 3.34-0.146-0.062-0.29-0.13-0.429-0.206-0.155-0.084-0.343-0.081-0.494 0.011s-0.244 0.254-0.244 0.43v0.059c0 1.854 0.934 3.537 2.393 4.552-0.006-0.001-0.012-0.003-0.018-0.003-0.175-0.032-0.349 0.031-0.465 0.163s-0.153 0.316-0.099 0.483c0.591 1.824 2.075 3.186 3.884 3.666-1.502 0.886-3.2 1.349-4.979 1.349-0.393 0-0.782-0.023-1.154-0.069-0.233-0.029-0.453 0.109-0.531 0.329s0.006 0.465 0.204 0.59c2.422 1.533 5.214 2.343 8.078 2.343 9.386 0 14.994-7.559 14.994-14.868 0-0.136-0.003-0.271-0.007-0.405 0.954-0.712 1.776-1.579 2.448-2.585 0.123-0.185 0.11-0.429-0.033-0.6zM25.584 10.572c-0.14 0.098-0.219 0.261-0.211 0.432 0.010 0.207 0.017 0.417 0.017 0.628 0 6.816-5.235 13.868-13.995 13.868-1.991 0-3.947-0.42-5.75-1.226 2.113-0.16 4.099-0.925 5.787-2.234 0.168-0.13 0.235-0.351 0.168-0.552s-0.253-0.338-0.465-0.343c-1.691-0.032-3.202-0.976-3.974-2.418 0.558 0.019 1.101-0.049 1.638-0.197 0.223-0.061 0.376-0.268 0.367-0.5s-0.175-0.427-0.402-0.473c-1.886-0.376-3.316-1.886-3.622-3.724 0.561 0.201 1.149 0.316 1.734 0.334 0.229 0.005 0.424-0.136 0.492-0.348s-0.013-0.445-0.2-0.569c-1.279-0.849-2.042-2.265-2.042-3.787 0-0.568 0.105-1.125 0.307-1.643 2.659 2.913 6.392 4.681 10.357 4.88 0.164 0.011 0.308-0.058 0.409-0.178s0.139-0.281 0.104-0.434c-0.080-0.342-0.12-0.692-0.12-1.039 0-2.508 2.061-4.548 4.595-4.548 1.268 0 2.489 0.524 3.35 1.436 0.117 0.124 0.291 0.18 0.459 0.148 0.692-0.133 1.369-0.335 2.024-0.604-0.364 0.503-0.832 0.932-1.38 1.257-0.203 0.121-0.294 0.367-0.218 0.592 0.076 0.223 0.299 0.365 0.534 0.335 0.476-0.059 0.943-0.146 1.398-0.262-0.416 0.432-0.87 0.824-1.362 1.171z"></path>
<path d="M15.386 22.893l0.31 0.95c3.562-1.163 6.412-3.957 7.821-7.665l-0.934-0.355c-0.765 2.013-2.716 5.607-7.197 7.070z"></path>
<path d="M22 10c0 0.552-0.448 1-1 1s-1-0.448-1-1c0-0.552 0.448-1 1-1s1 0.448 1 1z"></path>
</symbol>
<symbol id="icon-pt" viewBox="0 0 32 32">
<path d="M11.445 27.64c-0.11-0.99-0.21-2.505 0.045-3.585 0.225-0.975 1.465-6.215 1.465-6.215s-0.375-0.75-0.375-1.855c0-1.74 1.005-3.035 2.26-3.035 1.070 0 1.585 0.8 1.585 1.76 0 1.075-0.685 2.675-1.035 4.16-0.295 1.245 0.62 2.26 1.85 2.26 2.22 0 3.93-2.34 3.93-5.725 0-2.99-2.15-5.085-5.225-5.085-3.555 0-5.64 2.67-5.64 5.425 0 1.075 0.41 2.225 0.93 2.855 0.1 0.12 0.115 0.23 0.085 0.355-0.095 0.395-0.305 1.245-0.345 1.42-0.055 0.23-0.185 0.275-0.42 0.165-1.56-0.725-2.54-3.005-2.54-4.84 0-3.945 2.865-7.565 8.26-7.565 4.34 0 7.71 3.090 7.71 7.22 0 4.305-2.72 7.775-6.49 7.775-1.265 0-2.455-0.66-2.865-1.435 0 0-0.625 2.385-0.775 2.97-0.285 1.085-1.045 2.445-1.555 3.28z"></path>
<path d="M16 29c-7.168 0-13-5.831-13-13s5.832-13 13-13 13 5.832 13 13-5.832 13-13 13zM16 4c-6.617 0-12 5.383-12 12s5.383 12 12 12 12-5.383 12-12-5.383-12-12-12z"></path>
</symbol>
<symbol id="icon-in" viewBox="0 0 32 32">
<path d="M11 24v-11h-3v11h3z"></path>
<path d="M9.679 11.5c1.256 0 2.038-0.737 2.038-1.777-0.024-1.063-0.782-1.825-2.014-1.825s-2.038 0.738-2.038 1.8c0 1.040 0.781 1.801 1.99 1.801h0.024z"></path>
<path d="M13.473 24h3.527v-6.044c0-0.324 0.061-0.648 0.157-0.879 0.26-0.648 0.939-1.317 1.933-1.317 1.303 0 1.91 0.994 1.91 2.45v5.791h3v-6.206c0-3.329-1.543-4.749-3.913-4.749-1.943 0-2.562 0.955-3.036 1.955h-0.052v-2h-3.527c0.047 1-0.088 11-0.088 11h0.088z"></path>
<path d="M25 28.5h-18c-1.929 0-3.5-1.57-3.5-3.5v-18c0-1.929 1.571-3.5 3.5-3.5h18c1.93 0 3.5 1.571 3.5 3.5v18c0 1.93-1.57 3.5-3.5 3.5zM7 4.5c-1.378 0-2.5 1.122-2.5 2.5v18c0 1.378 1.122 2.5 2.5 2.5h18c1.378 0 2.5-1.122 2.5-2.5v-18c0-1.378-1.122-2.5-2.5-2.5h-18z"></path>
</symbol>
<symbol id="icon-fb" viewBox="0 0 32 32">
<path d="M21 28v-9h2.679l0.467-4h-3.146v-2.229c0-1.049-0.066-1.764 1.439-1.764l1.561-0.001v-3.239c-0.5-0.044-1.244-0.143-2.568-0.143-2.765 0-4.432 1.688-4.432 4.788v2.587h-3.5v4h3.5v9h4z"></path>
<path d="M25 28.5h-18c-1.929 0-3.5-1.57-3.5-3.5v-18c0-1.929 1.571-3.5 3.5-3.5h18c1.93 0 3.5 1.571 3.5 3.5v18c0 1.93-1.57 3.5-3.5 3.5zM7 4.5c-1.378 0-2.5 1.122-2.5 2.5v18c0 1.378 1.122 2.5 2.5 2.5h18c1.378 0 2.5-1.122 2.5-2.5v-18c0-1.378-1.122-2.5-2.5-2.5h-18z"></path>
</symbol>
</defs>
</svg>
