<svg aria-hidden="true" style="position: absolute; width: 0; height: 0; overflow: hidden;" version="1.1" xmlns="http://www.w3.org/2000/svg" xmlns:xlink="http://www.w3.org/1999/xlink">
<defs>
<symbol id="icon-cross" viewBox="0 0 32 32">
<path fill="none" stroke="#001a72" style="stroke: var(--color1, #001a72)" stroke-linejoin="round" stroke-linecap="round" stroke-miterlimit="4" stroke-width="2" d="M25.333 6.667l-18.667 18.667M6.667 6.667l18.667 18.667"></path>
</symbol>
<symbol id="icon-menu" viewBox="0 0 32 32">
<path d="M1 7h30c0.552 0 1-0.448 1-1s-0.448-1-1-1h-30c-0.552 0-1 0.448-1 1s0.448 1 1 1z"></path>
<path d="M31 15h-30c-0.552 0-1 0.448-1 1s0.448 1 1 1h30c0.552 0 1-0.448 1-1s-0.448-1-1-1z"></path>
<path d="M31 25h-30c-0.552 0-1 0.448-1 1s0.448 1 1 1h30c0.552 0 1-0.448 1-1s-0.448-1-1-1z"></path>
</symbol>
</defs>
</svg>
