<!-- Generated by IcoMoon.io -->
<svg version="1.1" xmlns="http://www.w3.org/2000/svg" width="32" height="32" viewBox="0 0 32 32">
<title>tw</title>
<path d="M28.797 8.043c-0.143-0.17-0.381-0.225-0.585-0.136-0.307 0.136-0.622 0.256-0.945 0.36 0.412-0.518 0.731-1.108 0.937-1.745 0.064-0.198-0.001-0.413-0.163-0.543s-0.387-0.147-0.566-0.042c-0.889 0.521-1.836 0.894-2.82 1.112-1.033-0.987-2.43-1.548-3.878-1.548-3.084 0-5.595 2.489-5.595 5.549 0 0.202 0.011 0.405 0.034 0.607-3.705-0.352-7.145-2.171-9.514-5.051-0.104-0.126-0.259-0.192-0.425-0.181-0.162 0.013-0.309 0.104-0.392 0.244-0.497 0.84-0.76 1.806-0.76 2.796 0 1.223 0.404 2.39 1.123 3.34-0.146-0.062-0.29-0.13-0.429-0.206-0.155-0.084-0.343-0.081-0.494 0.011s-0.244 0.254-0.244 0.43v0.059c0 1.854 0.934 3.537 2.393 4.552-0.006-0.001-0.012-0.003-0.018-0.003-0.175-0.032-0.349 0.031-0.465 0.163s-0.153 0.316-0.099 0.483c0.591 1.824 2.075 3.186 3.884 3.666-1.502 0.886-3.2 1.349-4.979 1.349-0.393 0-0.782-0.023-1.154-0.069-0.233-0.029-0.453 0.109-0.531 0.329s0.006 0.465 0.204 0.59c2.422 1.533 5.214 2.343 8.078 2.343 9.386 0 14.994-7.559 14.994-14.868 0-0.136-0.003-0.271-0.007-0.405 0.954-0.712 1.776-1.579 2.448-2.585 0.123-0.185 0.11-0.429-0.033-0.6zM25.584 10.572c-0.14 0.098-0.219 0.261-0.211 0.432 0.010 0.207 0.017 0.417 0.017 0.628 0 6.816-5.235 13.868-13.995 13.868-1.991 0-3.947-0.42-5.75-1.226 2.113-0.16 4.099-0.925 5.787-2.234 0.168-0.13 0.235-0.351 0.168-0.552s-0.253-0.338-0.465-0.343c-1.691-0.032-3.202-0.976-3.974-2.418 0.558 0.019 1.101-0.049 1.638-0.197 0.223-0.061 0.376-0.268 0.367-0.5s-0.175-0.427-0.402-0.473c-1.886-0.376-3.316-1.886-3.622-3.724 0.561 0.201 1.149 0.316 1.734 0.334 0.229 0.005 0.424-0.136 0.492-0.348s-0.013-0.445-0.2-0.569c-1.279-0.849-2.042-2.265-2.042-3.787 0-0.568 0.105-1.125 0.307-1.643 2.659 2.913 6.392 4.681 10.357 4.88 0.164 0.011 0.308-0.058 0.409-0.178s0.139-0.281 0.104-0.434c-0.080-0.342-0.12-0.692-0.12-1.039 0-2.508 2.061-4.548 4.595-4.548 1.268 0 2.489 0.524 3.35 1.436 0.117 0.124 0.291 0.18 0.459 0.148 0.692-0.133 1.369-0.335 2.024-0.604-0.364 0.503-0.832 0.932-1.38 1.257-0.203 0.121-0.294 0.367-0.218 0.592 0.076 0.223 0.299 0.365 0.534 0.335 0.476-0.059 0.943-0.146 1.398-0.262-0.416 0.432-0.87 0.824-1.362 1.171z"></path>
<path d="M15.386 22.893l0.31 0.95c3.562-1.163 6.412-3.957 7.821-7.665l-0.934-0.355c-0.765 2.013-2.716 5.607-7.197 7.070z"></path>
<path d="M22 10c0 0.552-0.448 1-1 1s-1-0.448-1-1c0-0.552 0.448-1 1-1s1 0.448 1 1z"></path>
</svg>
